<svg id="Группа_1" data-name="Группа 1" xmlns="http://www.w3.org/2000/svg" width="119.938" height="31.594" viewBox="0 0 119.938 31.594"><defs><style>.cls-1{fill:#27300f;fill-rule:evenodd}</style></defs><path id="Органическая_еда" data-name="Органическая еда" class="cls-1" d="M1.055 29.024a3.072 3.072 0 00.67 1.03 3.125 3.125 0 001.016.683 3.222 3.222 0 001.268.247 3.213 3.213 0 001.273-.247 3.138 3.138 0 001.012-.683 3.074 3.074 0 00.67-1.03 3.553 3.553 0 000-2.559 3.088 3.088 0 00-.67-1.025 3.141 3.141 0 00-1.012-.684 3.211 3.211 0 00-1.273-.247 3.22 3.22 0 00-1.268.247 3.128 3.128 0 00-1.016.684 3.085 3.085 0 00-.67 1.025 3.553 3.553 0 000 2.559zm.881-2.545a2.313 2.313 0 012.073-1.205 2.3 2.3 0 012.073 1.205 2.747 2.747 0 010 2.536 2.3 2.3 0 01-2.073 1.205 2.314 2.314 0 01-2.073-1.205 2.746 2.746 0 010-2.536zm8.323 4.416h.765v-2.519h.944a2.509 2.509 0 001.093-.229 1.854 1.854 0 00.764-.656 1.924 1.924 0 000-2.01 1.867 1.867 0 00-.764-.652 2.509 2.509 0 00-1.093-.229H10.26v6.3zm2.7-5.284a1.192 1.192 0 010 1.749 1.575 1.575 0 01-.994.3h-.941v-2.342h.944a1.593 1.593 0 01.994.293zm4.2 5.284h.764v-5.577h2.338V24.6h-3.1v6.3zm10.163 0l-2.923-6.61-2.923 6.61h.854l.8-1.889h2.536l.8 1.889h.854zm-1.961-2.608h-1.917l.962-2.266zm4.7 2.608h.764v-3.058H34.3v3.058h.764V24.6H34.3v2.518h-3.463V24.6h-.765v6.3zm8.409-6.3v6.61l4.767-5v4.686h.764v-6.61l-4.767 5V24.6h-.753zm8.948 0v1.637a2.7 2.7 0 00.211 1.088 1.737 1.737 0 00.634.769 1.832 1.832 0 001.043.283h1.439v2.518h.764V24.6h-.752v3.1h-1.439a1.04 1.04 0 01-.648-.2 1.194 1.194 0 01-.391-.531 2 2 0 01-.13-.737V24.6h-.719zm7.51 6.3h3.6v-.72H55.7v-2.338h2.653v-.72H55.7v-1.8h2.833V24.6h-3.6v6.3zm7.7-4.438a2.433 2.433 0 01.859-.868 2.217 2.217 0 011.151-.315 2.6 2.6 0 011.178.256 2.456 2.456 0 01.845.679V25.2a2.688 2.688 0 00-.863-.522 3.411 3.411 0 00-1.16-.171 3.156 3.156 0 00-1.228.238 3.047 3.047 0 00-1 .675 3.133 3.133 0 00-.674 1.03 3.575 3.575 0 000 2.59 3.133 3.133 0 00.674 1.03 3.044 3.044 0 001 .674 3.156 3.156 0 001.228.238 3.409 3.409 0 001.16-.171 2.685 2.685 0 00.863-.522v-1.004a2.533 2.533 0 01-2.024.935 2.216 2.216 0 01-1.151-.315 2.419 2.419 0 01-.859-.872 2.693 2.693 0 01.015-2.577zM70 30.894h.764v-3.057l2.608 3.058h.948l-2.86-3.346 2.725-2.95h-.944l-2.473 2.707V24.6H70v6.3zm12.231 0l-2.923-6.61-2.923 6.61h.854l.8-1.889h2.541l.8 1.889h.854zm-1.961-2.608h-1.921l.962-2.266zm6.596-3.686a2.517 2.517 0 00-1.088.229 1.861 1.861 0 00-.769.652 1.767 1.767 0 00-.283 1.007 1.718 1.718 0 00.418 1.183 2.056 2.056 0 001.084.634l-1.88 2.59h.944l1.754-2.518h.764v2.518h.764V24.6h-1.708zm-.989 2.783a1.234 1.234 0 010-1.794 1.516 1.516 0 01.989-.315h.944V27.7h-.944a1.5 1.5 0 01-.989-.318zm10.792 3.512h3.6v-.72h-2.836v-2.338h2.653v-.72h-2.653v-1.8h2.833V24.6h-3.6v6.3zm12.276.989h.674v-1.709h-.809l-2.383-5.891-2.384 5.891h-.809v1.709h.675v-.99h5.036v.989zm-.935-1.709h-3.166l1.583-4.155zm10.153.72l-2.923-6.61-2.923 6.61h.855l.8-1.889h2.536l.8 1.889h.854zm-1.96-2.608h-1.925l.962-2.266z" transform="translate(-.031 -.281)"/><path id="Healthly" class="cls-1" d="M.038 15.49h3.23v-5.6H9.02v5.6h3.23V2.112H9.02v4.873H3.267V2.112H.038V15.49zm24.137-2.408l-2.6-.631A2.3 2.3 0 0119.4 13.6a1.873 1.873 0 01-1.357-.5 2.264 2.264 0 01-.631-1.4h6.708a2.838 2.838 0 00.019-.344v-.4A4.307 4.307 0 0022.9 7.673a4.909 4.909 0 00-3.5-1.166 5.133 5.133 0 00-3.631 1.223 4.362 4.362 0 00-1.319 3.364 4.671 4.671 0 00.612 2.427 4.111 4.111 0 001.729 1.6 5.862 5.862 0 002.666.564 4.921 4.921 0 004.72-2.6zm-3.66-4.195a1.927 1.927 0 01.526 1.214h-3.593a1.791 1.791 0 011.892-1.663 1.591 1.591 0 011.175.449zm7.148.213a6.257 6.257 0 011-.315 5.043 5.043 0 011.147-.134q1.663 0 1.663 1.3v.764a5.386 5.386 0 00-1.128-.392 6.245 6.245 0 00-1.471-.162 3.905 3.905 0 00-2.551.736 2.456 2.456 0 00-.889 2 2.573 2.573 0 001.577 2.475 3.824 3.824 0 001.558.315 4.155 4.155 0 001.71-.354 2.527 2.527 0 001.195-1.042v1.2h2.771V9.3a2.312 2.312 0 00-.535-1.548 3.371 3.371 0 00-1.453-.965 6.061 6.061 0 00-2.083-.334 7.641 7.641 0 00-2.284.325 13.9 13.9 0 00-1.806.688l.975 1.93a4.046 4.046 0 01.604-.296zm1.022 2.9a1.776 1.776 0 011.089-.258 4.184 4.184 0 011.7.344 1.683 1.683 0 01-.612 1.29 2 2 0 01-1.261.43 1.4 1.4 0 01-.889-.277.948.948 0 01-.354-.793.884.884 0 01.327-.736zm7.915 3.49h2.9V.583h-2.9V15.49zm4.319-6.4h1.548v6.4h2.79v-6.4H46.8V6.7h-1.546V3.641h-2.79V6.7h-1.548v2.387zm13.015 6.4h2.886V9.718a3.9 3.9 0 00-.688-2.484 2.821 2.821 0 00-2.331-.86 3.085 3.085 0 00-1.644.411A2.773 2.773 0 0051.122 7.9V.583h-2.9V15.49h2.9v-5.351a1.6 1.6 0 01.421-1.194 1.518 1.518 0 011.108-.411 1.127 1.127 0 01.994.411 2.081 2.081 0 01.287 1.194v5.351zm5.332 0h2.9V.583h-2.9V15.49zM70.653 6.7l-2.064 5.179L66.506 6.7h-3.192l3.8 8.084-2.141 4.912H67.9l5.733-13h-2.98z" transform="translate(-.031 -.281)"/><path id="food" d="M79.967 9.087h1.109v6.4h2.771v-6.4h2.121V6.7h-2.121V4.176q0-1.3.917-1.3a1.059 1.059 0 01.9.478l1.166-2.121a4.875 4.875 0 00-.89-.621 3.126 3.126 0 00-1.558-.335 3.313 3.313 0 00-2.475.85 3.179 3.179 0 00-.831 2.322V6.7h-1.109v2.387zM87.66 13.5a4.476 4.476 0 001.8 1.605 6.07 6.07 0 005.15 0 4.492 4.492 0 001.783-1.605 4.375 4.375 0 00.659-2.408 4.41 4.41 0 00-.659-2.427 4.492 4.492 0 00-1.787-1.605 6.07 6.07 0 00-5.15 0 4.476 4.476 0 00-1.8 1.605A4.411 4.411 0 0087 11.094a4.376 4.376 0 00.66 2.406zm2.924-4.023a2.03 2.03 0 012.886 0 2.183 2.183 0 01.6 1.615 2.149 2.149 0 01-.6 1.605 2.053 2.053 0 01-2.886 0 2.149 2.149 0 01-.6-1.605 2.183 2.183 0 01.6-1.613zm8.523 4.023a4.471 4.471 0 001.8 1.605 6.069 6.069 0 005.15 0 4.493 4.493 0 001.787-1.605 4.371 4.371 0 00.659-2.408 4.407 4.407 0 00-.659-2.427 4.493 4.493 0 00-1.787-1.605 6.069 6.069 0 00-5.15 0 4.471 4.471 0 00-1.8 1.605 4.41 4.41 0 00-.659 2.427 4.375 4.375 0 00.659 2.408zm2.924-4.023a2.03 2.03 0 012.886 0 2.184 2.184 0 01.6 1.615 2.15 2.15 0 01-.6 1.605 2.053 2.053 0 01-2.886 0 2.15 2.15 0 01-.6-1.605 2.184 2.184 0 01.6-1.613zm8.457 4.118a4 4 0 001.548 1.558 4.141 4.141 0 002.026.525 3.424 3.424 0 003.019-1.605v1.417h2.886V.583h-2.886v7.53a3.424 3.424 0 00-3.019-1.605 4.142 4.142 0 00-2.026.526 4.018 4.018 0 00-1.548 1.548 4.94 4.94 0 00-.593 2.513 4.952 4.952 0 00.593 2.505zm3.067-4.147a2.038 2.038 0 011.481-.612 1.922 1.922 0 01.965.268 2.172 2.172 0 01.774.764 2.292 2.292 0 01.306 1.223 2.3 2.3 0 01-.306 1.214 2.145 2.145 0 01-.774.774 1.919 1.919 0 01-.965.268 2.037 2.037 0 01-1.481-.612 2.2 2.2 0 01-.621-1.644 2.2 2.2 0 01.621-1.64z" transform="translate(-.031 -.281)" fill="#d26a22" fill-rule="evenodd"/></svg>